<svg width="23" height="23" viewBox="0 0 23 23" fill="none" xmlns="http://www.w3.org/2000/svg">
<path fill-rule="evenodd" clip-rule="evenodd" d="M22.9333 11.5C22.9333 17.8513 17.7995 23 11.4667 23C5.1338 23 0 17.8513 0 11.5C0 5.14873 5.1338 0 11.4667 0C17.7995 0 22.9333 5.14873 22.9333 11.5ZM14.6966 7.53735C13.9226 7.53735 13.3063 6.91443 13.3063 6.15256C13.3063 5.37631 13.9322 4.75818 14.6966 4.75818C15.4611 4.75818 16.0774 5.38589 16.0774 6.15256C16.0774 6.91922 15.4706 7.53735 14.6966 7.53735ZM6.83243 7.15401C7.06176 6.05672 8.22276 4.98818 10.0144 4.98818L10.0192 4.99297H11.5194V7.15881H10.5113C10.1004 7.15881 9.61309 7.46068 9.61309 7.96381V8.57714H16.1061V15.2423H17.3579V17.3459H12.1023V15.2423H13.2824V10.6136H9.61309V15.2423H10.8314V17.3459H5.58543V15.2376H6.78942V10.6088H5.58543V8.57235H6.78942V7.54693C6.78942 7.41276 6.80854 7.28339 6.83243 7.15401Z" fill="white"/>
</svg>
