<svg width="23" height="24" viewBox="0 0 23 24" fill="none" xmlns="http://www.w3.org/2000/svg">
<path d="M16.0911 9.71973C14.7927 9.71973 14.3754 10.9754 14.2827 11.7195V11.766L14.0972 12.4636C14.6536 12.9286 15.3492 13.2542 16.0447 13.2542C16.9722 13.2542 17.8068 12.4636 17.8532 11.4404C17.8532 10.5103 17.0649 9.71973 16.0911 9.71973Z" fill="#F2F2F2"/>
<path d="M11.5 0C5.14718 0 0 5.16214 0 11.5334C0 17.9047 5.14718 23.0669 11.5 23.0669C17.8528 23.0669 23 17.9047 23 11.5334C23 5.16214 17.8528 0 11.5 0ZM16.0907 15.0679C15.1633 15.0679 14.375 14.7888 13.6794 14.3703L12.8911 18.0907H11.0827L12.1956 12.9751C11.7319 12.324 11.2681 11.5799 10.9435 10.8824V11.673C10.9435 13.5797 9.41331 15.1144 7.55847 15.1144C5.70363 15.1144 4.17339 13.5797 4.17339 11.673V7.02237H5.93548V11.673C5.93548 12.6031 6.67742 13.3472 7.60484 13.3472C8.53226 13.3472 9.27419 12.6031 9.27419 11.673V7.02237H11.0363C11.4073 8.18502 12.0101 9.58019 12.7984 10.8358C13.2621 9.06863 14.5605 7.99899 16.1835 7.99899C18.0847 7.99899 19.6613 9.58019 19.6613 11.4869C19.5686 13.4867 17.9919 15.0679 16.0907 15.0679Z" fill="#F2F2F2"/>
</svg>
