<svg width="16" height="21" viewBox="0 0 16 21" fill="none" xmlns="http://www.w3.org/2000/svg">
<path d="M12.6078 13.1516V1.02079C12.6078 0.457448 12.1517 0 11.59 0C11.0282 0 10.5721 0.457448 10.5721 1.02079V13.1516C10.5721 16.269 6.17139 16.2733 6.17139 13.1516V8.25947C6.17139 8.25947 6.17139 8.24677 6.17139 8.2383C6.17139 7.67496 5.71528 7.21751 5.15357 7.21751C4.59187 7.21751 4.13574 7.67496 4.13574 8.2383V13.1516C4.13574 18.8951 12.6078 18.9756 12.6078 13.1516Z" fill="white"/>
<path d="M8.37134 14.359C8.89926 14.359 9.33427 13.9524 9.38495 13.4356H9.38917V8.30204C9.38917 7.7387 8.93305 7.28125 8.37134 7.28125C7.80964 7.28125 7.35352 7.7387 7.35352 8.30204V13.4356H7.35774C7.40842 13.9524 7.84343 14.359 8.37134 14.359Z" fill="#F2F2F2"/>
<path d="M14.7867 5.24805C14.2165 5.24805 13.7562 5.70973 13.7562 6.2773V13.8082C13.6041 16.6758 11.2348 18.9503 8.33338 18.9503C5.43194 18.9503 3.06264 16.6715 2.9106 13.8082V10.6442C2.9106 10.0767 2.45026 9.61498 1.8801 9.61498C1.30995 9.61498 0.849609 10.0767 0.849609 10.6442V13.8718H0.85383C0.85383 13.8718 0.85383 13.8887 0.85383 13.893C1.05233 17.8533 4.3212 21.0003 8.32916 21.0003C12.3371 21.0003 15.6018 17.849 15.8045 13.893C15.8045 13.8845 15.8045 13.876 15.8045 13.8718H15.8087V6.2773C15.8087 5.70973 15.3484 5.24805 14.7782 5.24805H14.7867Z" fill="white"/>
</svg>
